<svg width="100%" viewBox="0 0 1200 420" xmlns="http://www.w3.org/2000/svg" role="img" aria-label="taha bakri — builder, tbilisi. A brainstorm board with sticky notes: Restora, notion-bases, StaffLoop, event marketplaces.">
  <defs>
    <pattern id="grid" width="40" height="40" patternUnits="userSpaceOnUse">
      <path d="M40 0H0V40" fill="none" stroke="#ededea" stroke-width="1"/>
    </pattern>
    <clipPath id="round"><rect x="0" y="0" width="1200" height="420" rx="20"/></clipPath>
  </defs>

  <g clip-path="url(#round)">
    <rect x="0" y="0" width="1200" height="420" fill="#fcfbf8"/>
    <rect x="0" y="0" width="1200" height="420" fill="url(#grid)"/>

    <g fill="none" stroke="#111111" stroke-width="3" stroke-linecap="round" stroke-linejoin="round">
      <path d="M250 120 C 300 92, 332 116, 346 158" stroke-dasharray="150" stroke-dashoffset="150">
        <animate attributeName="stroke-dashoffset" values="150;0;0;150" keyTimes="0;0.3;0.9;1" dur="7s" repeatCount="indefinite"/>
      </path>
      <path d="M334 146 L 348 160 L 332 166" stroke-dasharray="60" stroke-dashoffset="60">
        <animate attributeName="stroke-dashoffset" values="60;0;0;60" keyTimes="0;0.34;0.9;1" dur="7s" repeatCount="indefinite"/>
      </path>
      <path d="M912 124 C 882 96, 866 122, 858 162" stroke-dasharray="155" stroke-dashoffset="155">
        <animate attributeName="stroke-dashoffset" values="155;0;0;155" keyTimes="0;0.3;0.9;1" dur="8s" repeatCount="indefinite" begin="0.8s"/>
      </path>
      <path d="M870 150 L 856 164 L 872 170" stroke-dasharray="60" stroke-dashoffset="60">
        <animate attributeName="stroke-dashoffset" values="60;0;0;60" keyTimes="0;0.34;0.9;1" dur="8s" repeatCount="indefinite" begin="0.8s"/>
      </path>
    </g>

    <g fill="#13a8ff">
      <circle cx="245" cy="232" r="4"><animate attributeName="opacity" values="1;0.25;1" dur="3s" repeatCount="indefinite"/></circle>
      <circle cx="958" cy="238" r="4"><animate attributeName="opacity" values="0.3;1;0.3" dur="4s" repeatCount="indefinite"/></circle>
    </g>
    <g fill="none" stroke="#13a8ff" stroke-width="2.6" stroke-linecap="round">
      <path d="M600 348 l0 -15 M592 340.5 l15 0"><animate attributeName="opacity" values="0.4;1;0.4" dur="4s" repeatCount="indefinite"/></path>
      <path d="M286 150 l0 -13 M279.5 143.5 l13 0"><animate attributeName="opacity" values="1;0.4;1" dur="3.5s" repeatCount="indefinite"/></path>
    </g>

    <rect x="340" y="156" width="520" height="120" rx="2" fill="rgba(19,168,255,0.05)" stroke="#13a8ff" stroke-width="3" stroke-dasharray="11 8">
      <animate attributeName="stroke-dashoffset" values="0;-76" dur="3.4s" repeatCount="indefinite"/>
    </rect>
    <g fill="#13a8ff" stroke="#050505" stroke-width="2.4">
      <rect x="333" y="149" width="13" height="13"/>
      <rect x="593.5" y="149" width="13" height="13"/>
      <rect x="854" y="149" width="13" height="13"/>
      <rect x="333" y="209.5" width="13" height="13"/>
      <rect x="854" y="209.5" width="13" height="13"/>
      <rect x="333" y="270" width="13" height="13"/>
      <rect x="593.5" y="270" width="13" height="13"/>
      <rect x="854" y="270" width="13" height="13"/>
    </g>
    <text x="600" y="234" text-anchor="middle" font-family="'Comic Sans MS','Comic Neue','Chalkboard SE',cursive" font-size="58" font-weight="700" fill="#111111">taha bakri</text>
    <text x="600" y="304" text-anchor="middle" font-family="'Comic Sans MS','Comic Neue',cursive" font-size="20" font-weight="700" fill="#5a6577">builder · tbilisi · ships fast</text>

    <g transform="translate(74,52) rotate(-7)">
      <animateTransform attributeName="transform" type="translate" additive="sum" values="0 0;0 -5;0 0" dur="4.2s" repeatCount="indefinite"/>
      <rect x="4" y="6" width="168" height="92" fill="rgba(0,0,0,0.06)"/>
      <rect width="168" height="92" fill="#a8efcf"/>
      <rect x="58" y="-9" width="46" height="15" fill="rgba(90,95,105,0.22)" transform="rotate(5 81 -1.5)"/>
      <text x="84" y="40" text-anchor="middle" font-family="'Comic Sans MS','Comic Neue',cursive" font-size="20" font-weight="700" fill="#0a3d2a">Restora</text>
      <text x="84" y="65" text-anchor="middle" font-family="'Comic Sans MS','Comic Neue',cursive" font-size="13" font-weight="700" fill="#256b50">Notion backup</text>
    </g>

    <g transform="translate(914,46) rotate(6)">
      <animateTransform attributeName="transform" type="translate" additive="sum" values="0 0;0 6;0 0" dur="5.2s" repeatCount="indefinite"/>
      <rect x="4" y="6" width="182" height="92" fill="rgba(0,0,0,0.06)"/>
      <rect width="182" height="92" fill="#bcecff"/>
      <rect x="66" y="-9" width="46" height="15" fill="rgba(90,95,105,0.22)" transform="rotate(-4 89 -1.5)"/>
      <text x="91" y="40" text-anchor="middle" font-family="'Comic Sans MS','Comic Neue',cursive" font-size="18" font-weight="700" fill="#08384f">notion-bases</text>
      <text x="91" y="65" text-anchor="middle" font-family="'Comic Sans MS','Comic Neue',cursive" font-size="13" font-weight="700" fill="#136080">npx → Obsidian</text>
    </g>

    <g transform="translate(96,288) rotate(5)">
      <animateTransform attributeName="transform" type="translate" additive="sum" values="0 0;0 -6;0 0" dur="4.8s" repeatCount="indefinite"/>
      <rect x="4" y="6" width="176" height="92" fill="rgba(0,0,0,0.06)"/>
      <rect width="176" height="92" fill="#ffef9d"/>
      <rect x="62" y="-9" width="46" height="15" fill="rgba(90,95,105,0.22)" transform="rotate(6 85 -1.5)"/>
      <text x="88" y="40" text-anchor="middle" font-family="'Comic Sans MS','Comic Neue',cursive" font-size="19" font-weight="700" fill="#5a4500">StaffLoop</text>
      <text x="88" y="65" text-anchor="middle" font-family="'Comic Sans MS','Comic Neue',cursive" font-size="13" font-weight="700" fill="#856600">event staffing · UAE</text>
    </g>

    <g transform="translate(916,286) rotate(-6)">
      <animateTransform attributeName="transform" type="translate" additive="sum" values="0 0;0 6;0 0" dur="5.6s" repeatCount="indefinite"/>
      <rect x="4" y="6" width="182" height="92" fill="rgba(0,0,0,0.06)"/>
      <rect width="182" height="92" fill="#ffc4a6"/>
      <rect x="66" y="-9" width="46" height="15" fill="rgba(90,95,105,0.22)" transform="rotate(-6 89 -1.5)"/>
      <text x="91" y="40" text-anchor="middle" font-family="'Comic Sans MS','Comic Neue',cursive" font-size="18" font-weight="700" fill="#7a2e0c">event apps</text>
      <text x="91" y="65" text-anchor="middle" font-family="'Comic Sans MS','Comic Neue',cursive" font-size="13" font-weight="700" fill="#9a4a22">&amp; marketplaces</text>
    </g>

    <path d="M4.037 4.688a.495.495 0 0 1 .651-.651l16 6.5a.5.5 0 0 1-.063.947l-6.124 1.58a2 2 0 0 0-1.438 1.435l-1.579 6.126a.5.5 0 0 1-.947.063z" fill="#13a8ff" stroke="#050505" stroke-width="1.4" transform="scale(1.15)">
      <animateMotion dur="12s" repeatCount="indefinite" rotate="0" path="M300 332 C 380 150 520 140 615 178 S 920 168 968 252 S 760 372 545 356 S 330 374 300 332 Z"/>
    </path>
  </g>
</svg>
